Coordinates
version=1
nRows=11
nColumns=63
inDegrees=yes

Units are S.I. units (second, meters, Newtons, ...)
If the header above contains a line with 'inDegrees', this indicates whether rotational values are in degrees (yes) or radians (no).

endheader
time	pelvis_tilt	pelvis_list	pelvis_rotation	pelvis_tx	pelvis_ty	pelvis_tz	hip_flexion_r	hip_adduction_r	hip_rotation_r	knee_angle_r	knee_angle_r_beta	ankle_angle_r	subtalar_angle_r	mtp_angle_r	hip_flexion_l	hip_adduction_l	hip_rotation_l	knee_angle_l	knee_angle_l_beta	ankle_angle_l	subtalar_angle_l	mtp_angle_l	L5_S1_Flex_Ext	L5_S1_Lat_Bending	L5_S1_axial_rotation	L4_L5_Flex_Ext	L4_L5_Lat_Bending	L4_L5_axial_rotation	L3_L4_Flex_Ext	L3_L4_Lat_Bending	L3_L4_axial_rotation	L2_L3_Flex_Ext	L2_L3_Lat_Bending	L2_L3_axial_rotation	L1_L2_Flex_Ext	L1_L2_Lat_Bending	L1_L2_axial_rotation	L1_T12_Flex_Ext	L1_T12_Lat_Bending	L1_T12_axial_rotation	Abs_r3	Abs_r2	Abs_r1	Abs_t1	Abs_t2	neck_flexion	neck_bending	neck_rotation	arm_flex_r	arm_add_r	arm_rot_r	elbow_flex_r	pro_sup_r	wrist_flex_r	wrist_dev_r	arm_flex_l	arm_add_l	arm_rot_l	elbow_flex_l	pro_sup_l	wrist_flex_l	wrist_dev_l
      2.88333333	     -0.82818471	     -6.27155734	     82.70504150	      0.24149837	      0.81083524	      0.67500572	      3.68223802	     -0.89192459	    -13.43872649	     11.84090657	      0.20666281	     26.54116918	     18.38432231	      0.00000000	      1.98334679	     -1.50792343	      9.18750193	      7.60637632	      0.13275631	     14.62057554	    -15.00104934	      0.00000000	      0.09248535	     -0.13225961	      0.21943102	      0.17175455	     -0.17590529	      0.23314546	      0.15194418	     -0.32157602	      0.23314546	      0.10570151	     -0.32157602	      0.19200214	      0.08588190	     -0.26970380	      0.17828771	      0.05284613	     -0.20487014	      0.16457327	      0.66061362	     -1.49614719	      1.22040952	      0.00000000	      0.00000000	      7.88436475	     -0.26536911	     -3.88589816	     -0.24829370	    -11.23738369	     19.86802810	     43.15933696	     84.52862812	      3.88839337	      1.08465644	      8.02071005	    -18.76065390	     60.98919947	     25.66333704	     72.51194946	     -4.22457925	     -7.22652767
      2.90000000	     -0.87061025	     -6.20351732	     82.48648580	      0.24207532	      0.81095780	      0.67516085	      3.66562589	     -0.92171281	    -13.17697497	     11.92025638	      0.20804772	     26.54842833	     18.34515930	      0.00000000	      1.91733462	     -1.47881441	      9.04455310	      7.67850448	      0.13401518	     14.78696137	    -14.88879219	      0.00000000	      0.09485523	     -0.14358468	      0.27155683	      0.17615564	     -0.19096762	      0.28852914	      0.15583765	     -0.34911178	      0.28852914	      0.10841004	     -0.34911178	      0.23761223	      0.08808256	     -0.29279787	      0.22063993	      0.05420028	     -0.22241266	      0.20366763	      0.67754141	     -1.62425858	      1.51031764	      0.00000000	      0.00000000	      7.62036495	     -0.18673412	     -4.07606414	     -0.36168035	    -10.99001877	     19.26629069	     43.31564014	     84.64337277	      4.40592106	      1.56688065	      8.24219643	    -18.76978891	     60.31365562	     26.10885103	     73.61120309	     -3.34869186	     -5.26074245
      2.91666667	     -0.78536114	     -6.15096413	     82.55889805	      0.24219572	      0.81101894	      0.67526408	      3.58734445	     -0.82329003	    -13.21163571	     11.90430834	      0.20776938	     26.56343370	     18.36639493	      0.00000000	      1.91179155	     -1.55019205	      9.48014676	      7.82516942	      0.13657497	     14.99137402	    -15.05621306	      0.00000000	      0.09886694	     -0.14172862	      0.26556646	      0.18360579	     -0.18849906	      0.28216436	      0.16242849	     -0.34459896	      0.28216436	      0.11299502	     -0.34459896	      0.23237065	      0.09180784	     -0.28901300	      0.21577275	      0.05649257	     -0.21953763	      0.19917484	      0.70619664	     -1.60326248	      1.47700097	      0.00000000	      0.00000000	      7.34090344	     -0.08278671	     -4.29786622	     -0.32730810	    -11.00184591	     19.49704903	     43.38807342	     84.11205702	      4.35744046	      1.86516556	      8.34035224	    -18.69849334	     59.70311944	     26.36956462	     74.07390953	     -2.58957442	     -3.70338756
      2.93333333	     -0.72885398	     -5.97218871	     82.35810867	      0.24264333	      0.81124707	      0.67538029	      3.36621236	     -0.74692700	    -12.91203397	     11.78500049	      0.20568706	     26.54519523	     18.39756774	      0.00000000	      1.75613833	     -1.65284214	      8.50245685	      7.98953795	      0.13944374	     15.69970424	    -13.60083038	      0.00000000	      0.08956277	     -0.14417449	      0.28155756	      0.16632702	     -0.19175207	      0.29915491	      0.14714268	     -0.35054585	      0.29915491	      0.10236129	     -0.35054585	      0.24636287	      0.08316799	     -0.29400062	      0.22876552	      0.05117617	     -0.22332628	      0.21116817	      0.63973792	     -1.63093064	      1.56593869	      0.00000000	      0.00000000	      6.90138702	      0.07491259	     -4.35575113	     -0.00358955	    -11.24304988	     20.69396161	     43.21775707	     82.27753289	      4.47218730	      2.28576351	      8.46198716	    -18.63454031	     60.14181626	     26.33236084	     72.72578328	     -2.41398063	     -2.85512441
      2.95000000	     -0.68554547	     -5.90485428	     82.69958200	      0.24212565	      0.81120382	      0.67552748	      3.31729437	     -0.75362825	    -13.31505379	     11.91823280	      0.20801240	     26.65480677	     18.39967674	      0.00000000	      1.76951461	     -1.57174988	     10.31609312	      8.14044728	      0.14207761	     15.30904983	    -15.61081363	      0.00000000	      0.08995186	     -0.14335763	      0.21714643	      0.16704960	     -0.19066565	      0.23071809	      0.14778191	     -0.34855975	      0.23071809	      0.10280598	     -0.34855975	      0.19000313	      0.08352930	     -0.29233488	      0.17643148	      0.05139849	     -0.22206097	      0.16285983	      0.64251714	     -1.62169021	      1.20770333	      0.00000000	      0.00000000	      6.65381247	      0.09260807	     -4.45371960	     -0.02287824	    -11.12984453	     20.32839550	     43.05598203	     82.50515647	      5.08295379	      2.43974351	      8.49210104	    -18.40168072	     59.82479889	     25.87111460	     73.59388333	     -1.76068041	     -2.80077687
      2.96666667	     -0.64485021	     -5.82693842	     82.68069337	      0.24207346	      0.81120075	      0.67567193	      3.25133291	     -0.73825939	    -13.33275525	     11.97938823	      0.20907977	     26.64793999	     18.40195688	      0.00000000	      1.77083259	     -1.58270724	     10.36791918	      8.35057381	      0.14574501	     15.52444250	    -15.64990395	      0.00000000	      0.08773385	     -0.14157863	      0.20948611	      0.16293054	     -0.18829958	      0.22257899	      0.14413795	     -0.34423429	      0.22257899	      0.10027102	     -0.34423429	      0.18330034	      0.08146965	     -0.28870715	      0.17020746	      0.05013112	     -0.21930531	      0.15711458	      0.62667413	     -1.60156583	      1.16509888	      0.00000000	      0.00000000	      6.44863490	      0.12163648	     -4.49166148	      0.06045763	    -11.14802219	     20.43949777	     42.86546528	     81.84390796	      5.78270409	      2.87894158	      8.60236686	    -18.29929345	     61.03648960	     25.38545983	     72.15206890	     -1.84232961	     -3.15189827
      2.98333333	     -0.59429138	     -5.77708475	     82.68227291	      0.24191735	      0.81118575	      0.67578391	      3.20604423	     -0.71603324	    -13.38466874	     12.02984043	      0.20996032	     26.62858811	     18.42064719	      0.00000000	      1.81282484	     -1.61147414	     10.24610219	      8.56244215	      0.14944281	     15.73141248	    -15.53776455	      0.00000000	      0.08435351	     -0.13690050	      0.20399052	      0.15665291	     -0.18207767	      0.21673993	      0.13858439	     -0.33285988	      0.21673993	      0.09640763	     -0.33285988	      0.17849171	      0.07833067	     -0.27916751	      0.16574230	      0.04819960	     -0.21205888	      0.15299289	      0.60252872	     -1.54864587	      1.13453409	      0.00000000	      0.00000000	      6.35831468	      0.12929971	     -4.54218119	      0.08981317	    -11.17260707	     20.40269898	     42.73762513	     81.36463270	      6.43306931	      3.25808466	      8.84293367	    -18.21088547	     63.63949743	     24.68617399	     68.94802333	     -2.24274614	     -4.09978181
      3.00000000	     -0.55681513	     -5.77397513	     82.66403087	      0.24185372	      0.81111471	      0.67585036	      3.21290958	     -0.68489005	    -13.34167584	     12.05255230	      0.21035672	     26.67241026	     18.44188329	      0.00000000	      1.88233085	     -1.64214315	     10.04732587	      8.72315761	      0.15224782	     15.86804601	    -15.41302582	      0.00000000	      0.08314776	     -0.13365937	      0.18941752	      0.15441371	     -0.17776696	      0.20125612	      0.13660346	     -0.32497939	      0.20125612	      0.09502958	     -0.32497939	      0.16574033	      0.07721101	     -0.27255819	      0.15390174	      0.04751063	     -0.20703836	      0.14206314	      0.59391615	     -1.51198151	      1.05348345	      0.00000000	      0.00000000	      6.40915348	      0.11716800	     -4.56616357	      0.16280067	    -11.19121403	     20.43103354	     42.63178843	     81.06137229	      6.82937293	      3.40909149	      8.72951022	    -18.14389112	     65.03671779	     24.10078763	     66.45912139	     -2.55467715	     -4.91840402
      3.01666667	     -0.53612719	     -5.80770086	     82.60413012	      0.24183921	      0.81103275	      0.67593979	      3.26885221	     -0.64697664	    -13.12650465	     12.02664114	      0.20990449	     26.81657207	     18.44716501	      0.00000000	      1.95111540	     -1.66648557	      9.78735351	      8.80188449	      0.15362186	     15.92528274	    -15.30628357	      0.00000000	      0.08410867	     -0.13086251	      0.18775329	      0.15619822	     -0.17404714	      0.19948787	      0.13818214	     -0.31817912	      0.19948787	      0.09612780	     -0.31817912	      0.16428413	      0.07810331	     -0.26685484	      0.15254954	      0.04805970	     -0.20270603	      0.14081496	      0.60077984	     -1.48034293	      1.04422745	      0.00000000	      0.00000000	      6.49407863	      0.09537687	     -4.58794379	      0.18839849	    -11.17051571	     20.09691501	     42.61203604	     81.25357587	      7.26565363	      3.43739092	      8.86285563	    -18.08323105	     68.14888163	     23.36976621	     61.89455670	     -3.11451439	     -6.14109668
      3.03333333	     -0.50620905	     -5.86276168	     82.59541738	      0.24184821	      0.81094105	      0.67597647	      3.33860770	     -0.57810812	    -12.92238913	     11.95598943	      0.20867138	     27.05771392	     18.48281617	      0.00000000	      1.99545606	     -1.71466933	      9.57049911	      8.78476655	      0.15332310	     15.92197935	    -15.18818355	      0.00000000	      0.08554930	     -0.12882455	      0.16019731	      0.15887361	     -0.17133666	      0.17020964	      0.14054895	     -0.31322402	      0.17020964	      0.09777430	     -0.31322402	      0.14017265	      0.07944108	     -0.26269903	      0.13016031	      0.04888287	     -0.19954924	      0.12014798	      0.61107012	     -1.45728913	      0.89096938	      0.00000000	      0.00000000	      6.64737906	      0.09586063	     -4.62283804	      0.30153886	    -11.19435642	     20.04830923	     42.64577389	     81.55718406	      7.12008359	      3.19188566	      8.49736550	    -18.01210793	     68.35797824	     22.89807852	     59.93171232	     -3.24750265	     -6.60664947
      3.05000000	     -0.50721339	     -5.90925918	     82.39077658	      0.24214788	      0.81086559	      0.67613724	      3.45329474	     -0.52171723	    -12.38023260	     11.89853582	      0.20766863	     27.37416299	     18.47969326	      0.00000000	      1.96088470	     -1.73992663	      9.14242549	      8.65892571	      0.15112676	     15.90010493	    -15.00491644	      0.00000000	      0.08737188	     -0.13030688	      0.18107749	      0.16225831	     -0.17330815	      0.19239483	      0.14354326	     -0.31682815	      0.19239483	      0.09985732	     -0.31682815	      0.15844280	      0.08113352	     -0.26572179	      0.14712546	      0.04992429	     -0.20184536	      0.13580812	      0.62408858	     -1.47405750	      1.00709868	      0.00000000	      0.00000000	      6.76958053	      0.18366018	     -4.58226790	      0.35499438	    -11.18448294	     19.74091835	     42.69610708	     82.42099591	      6.76940330	      2.54459863	      8.45021539	    -17.98032885	     69.97696203	     22.36563851	     56.84967624	     -3.41040967	     -7.38125760
